<svg width="41" height="42" viewBox="0 0 41 42" fill="none" xmlns="http://www.w3.org/2000/svg">
<rect width="39" height="39" transform="translate(40 40) rotate(-180)" fill="#8E9EDA"/>
<path d="M39.457 39.946C37.2539 39.946 35.0347 40.0592 32.8515 39.7835C31.7941 39.65 30.6589 39.7632 29.5939 39.7632C27.1876 39.7632 24.7814 39.7632 22.3751 39.7632C20.7999 39.7632 19.2248 39.7632 17.6496 39.7632C16.8398 39.7632 16.03 39.7952 15.2266 39.6921C14.3204 39.5758 13.3994 39.734 12.4919 39.6007C11.3005 39.4256 9.98576 39.5804 8.7819 39.5804C7.90276 39.5804 7.0156 39.6718 6.15777 39.6718C5.40147 39.6718 4.66872 39.8274 3.9157 39.8546C3.1571 39.882 2.39271 39.8546 1.63342 39.8546" stroke="black" stroke-width="2" stroke-linecap="round" stroke-linejoin="round"/>
<path d="M40 1.18291C37.1204 1.18291 34.2866 1.14798 31.4238 1.47749C29.6662 1.6798 27.9765 1.49221 26.2183 1.66984C21.9781 1.66985 18.0641 1.99939 13.4977 1.99939C12.735 1.88524 11.7145 1.92497 10.9536 1.77715C10.2581 1.642 9.47084 1.48901 8.76183 1.45717C7.9734 1.42177 7.20471 1.09148 6.42928 1.09148C5.59146 1.09148 4.79193 1.00006 3.94591 1.00006C3.17665 1.00006 2.37417 1.09148 1.63346 1.09148" stroke="black" stroke-width="2" stroke-linecap="round" stroke-linejoin="round"/>
<path d="M39.6381 39.6718C39.6381 38.06 39.6381 36.4483 39.6381 34.8365C39.6381 33.7264 39.7381 32.5623 39.5476 31.4641C39.3499 30.3247 39.2214 29.1871 39.075 28.0408C38.8498 26.2771 39.075 24.5388 39.075 22.7606C39.075 19.8486 39.2652 17.1044 39.2652 14.1925C39.2652 11.847 39.2652 9.2789 39.2652 6.94253C39.2652 5.84873 39.2652 4.6862 39.2652 3.64711C39.2652 2.91507 39.2652 2.40481 39.2652 1.66985" stroke="black" stroke-width="2" stroke-linecap="round" stroke-linejoin="round"/>
<path d="M1.45245 1C1.45245 2.9494 0.988969 4.3545 1.2011 6.28343C1.28195 7.01858 1.2011 8.17992 1.2011 8.91976C1.2011 10.434 1.55523 12.0275 1.45244 13.5334C1.3052 15.6904 1.63342 17.9567 1.63342 20.1242C1.63342 21.1671 1.45244 22.0472 1.45244 23.0901C1.45244 23.7827 1.21361 24.714 1.20109 25.3969C1.15362 27.9867 1.51066 30.3348 1.2011 32.9065C1.13507 33.455 1.23614 34.015 1.17596 34.5622C1.09912 35.2609 1.00001 35.9115 1.00001 36.6192C1.00001 37.5001 1.2011 40.2263 1.2011 39.9849" stroke="black" stroke-width="2" stroke-linecap="round" stroke-linejoin="round"/>
<path d="M31 19.0909C29.0936 19.6161 28.0201 19.3417 26.5958 19.3582C23.7984 19.3906 21.2602 19.7046 18.4658 19.5946C15.6826 19.485 12.9401 19.4225 10.1575 19.4444" stroke="black" stroke-width="6" stroke-linecap="round" stroke-linejoin="round"/>
<path d="M17 27C15.3168 24.8889 13.0253 23.3482 11.1779 21.4039C10.8616 21.071 9.94562 20.4907 10.5799 20.7043" stroke="black" stroke-width="6" stroke-linecap="round" stroke-linejoin="round"/>
<path d="M10.6583 19C12.7695 17.3168 14.3101 15.0253 16.2545 13.1779C16.5874 12.8616 17.1676 11.9456 16.954 12.5799" stroke="black" stroke-width="6" stroke-linecap="round" stroke-linejoin="round"/>
</svg>
