<svg width="41" height="42" viewBox="0 0 41 42" fill="none" xmlns="http://www.w3.org/2000/svg">
<path d="M1.54295 2.05396C3.74613 2.05396 5.96526 1.94076 8.14851 2.21649C9.20592 2.35003 10.3411 2.2368 11.406 2.2368C13.8123 2.2368 16.2186 2.2368 18.6249 2.2368C20.2001 2.2368 21.7752 2.2368 23.3504 2.2368C24.1602 2.2368 24.97 2.20484 25.7734 2.30791C26.6796 2.42417 27.6006 2.26597 28.5081 2.39933C29.6995 2.57441 31.0142 2.41965 32.2181 2.41965C33.0972 2.41965 33.9844 2.32822 34.8422 2.32822C35.5985 2.32822 36.3313 2.17255 37.0843 2.14538C37.8429 2.11801 38.6073 2.14538 39.3666 2.14538" stroke="black" stroke-width="2" stroke-linecap="round" stroke-linejoin="round"/>
<path d="M1 40.8171C3.87959 40.8171 6.71337 40.852 9.57617 40.5225C11.3338 40.3202 13.0235 40.5078 14.7817 40.3302C19.0219 40.3302 22.9359 40.0006 27.5023 40.0006C28.265 40.1148 29.2855 40.075 30.0464 40.2228C30.7419 40.358 31.5292 40.511 32.2382 40.5428C33.0266 40.5782 33.7953 40.9085 34.5707 40.9085C35.4085 40.9085 36.2081 40.9999 37.0541 40.9999C37.8233 40.9999 38.6258 40.9085 39.3665 40.9085" stroke="black" stroke-width="2" stroke-linecap="round" stroke-linejoin="round"/>
<path d="M1.36195 2.32825C1.36195 3.93999 1.36195 5.55174 1.36195 7.16348C1.36195 8.27362 1.26193 9.43772 1.45244 10.536C1.65007 11.6753 1.77859 12.813 1.92498 13.9592C2.15023 15.7229 1.92498 17.4612 1.92498 19.2395C1.92498 22.1515 1.73486 24.8956 1.73486 27.8076C1.73486 30.153 1.73486 32.7211 1.73486 35.0575C1.73486 36.1513 1.73486 37.3138 1.73486 38.3529C1.73486 39.085 1.73486 39.5952 1.73486 40.3302" stroke="black" stroke-width="2" stroke-linecap="round" stroke-linejoin="round"/>
<path d="M39.5476 41C39.5476 39.0506 40.011 37.6455 39.7989 35.7166C39.7181 34.9814 39.7989 33.8201 39.7989 33.0802C39.7989 31.566 39.4448 29.9725 39.5476 28.4666C39.6948 26.3096 39.3666 24.0433 39.3666 21.8758C39.3666 20.8329 39.5476 19.9528 39.5476 18.9099C39.5476 18.2173 39.7864 17.286 39.7989 16.6031C39.8464 14.0133 39.4893 11.6652 39.7989 9.09354C39.8649 8.54503 39.7639 7.98502 39.824 7.43778C39.9009 6.7391 40 6.0885 40 5.38077C40 4.49988 39.7989 1.77373 39.7989 2.01506" stroke="black" stroke-width="2" stroke-linecap="round" stroke-linejoin="round"/>
</svg>
