<svg width="41" height="42" viewBox="0 0 41 42" fill="none" xmlns="http://www.w3.org/2000/svg">
<rect width="39" height="39" transform="translate(1 2)" fill="#8E9EDA"/>
<path d="M1.54297 2.05396C3.74615 2.05396 5.96527 1.94076 8.14853 2.21649C9.20594 2.35003 10.3411 2.2368 11.4061 2.2368C13.8124 2.2368 16.2186 2.2368 18.6249 2.2368C20.2001 2.2368 21.7752 2.2368 23.3504 2.2368C24.1602 2.2368 24.97 2.20484 25.7734 2.30791C26.6796 2.42417 27.6006 2.26597 28.5081 2.39933C29.6995 2.57441 31.0142 2.41965 32.2181 2.41965C33.0972 2.41965 33.9844 2.32822 34.8422 2.32822C35.5985 2.32822 36.3313 2.17255 37.0843 2.14538C37.8429 2.11801 38.6073 2.14538 39.3666 2.14538" stroke="black" stroke-width="2" stroke-linecap="round" stroke-linejoin="round"/>
<path d="M1 40.8171C3.87959 40.8171 6.71337 40.852 9.57617 40.5225C11.3338 40.3202 13.0235 40.5078 14.7817 40.3302C19.0219 40.3302 22.9359 40.0006 27.5023 40.0006C28.265 40.1148 29.2855 40.075 30.0464 40.2228C30.7419 40.358 31.5292 40.511 32.2382 40.5428C33.0266 40.5782 33.7953 40.9085 34.5707 40.9085C35.4085 40.9085 36.2081 40.9999 37.0541 40.9999C37.8233 40.9999 38.6258 40.9085 39.3665 40.9085" stroke="black" stroke-width="2" stroke-linecap="round" stroke-linejoin="round"/>
<path d="M1.36193 2.32822C1.36193 3.93996 1.36193 5.55171 1.36193 7.16345C1.36193 8.27358 1.26192 9.43769 1.45242 10.5359C1.65006 11.6753 1.77857 12.8129 1.92496 13.9592C2.15021 15.7229 1.92496 17.4612 1.92496 19.2394C1.92496 22.1514 1.73485 24.8956 1.73485 27.8075C1.73485 30.153 1.73485 32.7211 1.73485 35.0575C1.73485 36.1513 1.73485 37.3138 1.73485 38.3529C1.73485 39.0849 1.73485 39.5952 1.73485 40.3301" stroke="black" stroke-width="2" stroke-linecap="round" stroke-linejoin="round"/>
<path d="M39.5476 41C39.5476 39.0506 40.011 37.6455 39.7989 35.7166C39.7181 34.9814 39.7989 33.8201 39.7989 33.0802C39.7989 31.566 39.4448 29.9725 39.5476 28.4666C39.6948 26.3096 39.3666 24.0433 39.3666 21.8758C39.3666 20.8329 39.5476 19.9528 39.5476 18.9099C39.5476 18.2173 39.7864 17.286 39.7989 16.6031C39.8464 14.0133 39.4893 11.6652 39.7989 9.09354C39.8649 8.54503 39.7639 7.98502 39.824 7.43778C39.9009 6.7391 40 6.0885 40 5.38077C40 4.49988 39.7989 1.77373 39.7989 2.01506" stroke="black" stroke-width="2" stroke-linecap="round" stroke-linejoin="round"/>
<path d="M9.99996 22.9091C11.9064 22.3839 12.9799 22.6583 14.4042 22.6418C17.2016 22.6094 19.7398 22.2954 22.5342 22.4054C25.3174 22.515 28.0599 22.5775 30.8425 22.5556" stroke="black" stroke-width="6" stroke-linecap="round" stroke-linejoin="round"/>
<path d="M24 15C25.6832 17.1111 27.9747 18.6518 29.8221 20.5961C30.1384 20.929 31.0544 21.5093 30.4201 21.2957" stroke="black" stroke-width="6" stroke-linecap="round" stroke-linejoin="round"/>
<path d="M30.3417 23C28.2305 24.6832 26.6899 26.9747 24.7455 28.8221C24.4126 29.1384 23.8324 30.0544 24.046 29.4201" stroke="black" stroke-width="6" stroke-linecap="round" stroke-linejoin="round"/>
</svg>
