<?xml version="1.0" encoding="UTF-8"?>
<svg id="Layer_1" data-name="Layer 1" xmlns="http://www.w3.org/2000/svg" viewBox="0 0 41.01 41.02">
  <defs>
    <style>
      .cls-1 {
        fill: #a8a6dc;
      }

      .cls-2 {
        fill: none;
        stroke: #000;
        stroke-linecap: round;
        stroke-linejoin: round;
        stroke-width: 2px;
      }
    </style>
  </defs>
  <g>
    <path class="cls-1" d="M40.01,4.38c0,.71-.1,1.36-.18,2.06-.06,.55,.04,1.11-.03,1.66-.31,2.57,.05,4.92,0,7.51,0,.69-.25,1.62-.25,2.31,0,1.05-.18,1.93-.18,2.97,0,2.17,.33,4.43,.18,6.59-.1,1.5,.25,3.1,.25,4.61,0,.74-.08,1.9,0,2.64,.21,1.9-.24,3.29-.25,5.2h-.19c-.74,0-1.54,.09-2.31,.09-.84,0-1.64-.09-2.48-.09-.77,0-1.54-.33-2.33-.37-.71-.03-1.49-.18-2.19-.32-.76-.15-1.78-.11-2.54-.22-4.57,0-8.48,.33-12.72,.33-1.76,.18-3.45-.01-5.21,.19-2.63,.29-5.22,.29-7.85,.29v-13.02c0-2.91,.19-5.66,.19-8.57,0-1.78,.23-3.52,0-5.28-.05-.39-.1-.79-.14-1.18l2.3-.29c.02,.09,.03,.18,.05,.27l.9,4.48c.25,1.26,1.65,3.09,3.1,2.49,.53-.22,1.06-.44,1.6-.63,.85-.29,1.7-.54,2.6-.65,.45-.05,.9-.07,1.35-.06h.04c.11,.01,.21,.02,.32,.03,.26,.03,.53,.08,.79,.14,1.12,.24,1.46-.97,1.24-1.85-.28-1.07-1.11-2.36-2.28-2.6-.59-.12-1.2-.2-1.8-.22,1.22-1.6,2.78-2.94,4.65-3.79,.9-.41,1.74-.71,2.64-.91,.29-.06,.58-.12,.88-.16,.13-.02,.27-.03,.4-.04,.02-.01,.04-.01,.06-.01h.13c4.68,0,8.61,2.4,10.55,6.71,.5,1.11,2.32,.63,3.07,.16,.98-.63,1.64-1.73,1.14-2.86h-.01c-2.27-5.03-7.4-8.04-12.83-8.04V1.24h.68c.81,0,1.62-.03,2.42,.07,.91,.12,1.83-.04,2.73,.09,1.19,.18,2.51,.02,3.71,.02,.88,0,1.77-.09,2.62-.09,.76,0,1.49-.16,2.24-.18,.76-.03,1.52,0,2.28,0l.49,.09c.05,.65,.17,2.46,.17,3.14Zm-4.39,25.74c1.17,.17,1.43-.91,1.24-1.85h.01c-.3-1.49-.6-2.99-.9-4.48-.25-1.26-1.65-3.09-3.1-2.49-.51,.21-1.02,.42-1.53,.61l-.07,.02c-.85,.29-1.7,.54-2.6,.65-.42,.05-.83,.07-1.25,.06h-.14c-.11-.01-.21-.02-.32-.03-.26-.03-.53-.08-.79-.14-1.12-.24-1.46,.97-1.24,1.85,.28,1.07,1.11,2.36,2.28,2.6,.59,.13,1.2,.2,1.81,.22-1.23,1.61-2.79,2.95-4.66,3.8-.9,.41-1.74,.71-2.64,.91-.29,.06-.58,.12-.88,.16-.13,.02-.27,.03-.4,.04-.02,0-.04,0-.06,0h-.13c-4.68,0-8.61-2.4-10.55-6.71-.5-1.11-2.32-.63-3.07-.16-.98,.63-1.64,1.73-1.14,2.86h.01c2.36,5.26,7.88,8.31,13.57,8.02,5.72-.28,11.15-3.75,14.3-8.46,.13,.57,.49,1.18,.87,1.61,.32,.36,.87,.82,1.38,.9Z"/>
    <path d="M31.27,21.93l.07-.02c.51-.19,1.02-.4,1.53-.61,1.45-.6,2.85,1.23,3.1,2.49,.3,1.49,.6,2.99,.9,4.48h-.01c.19,.94-.07,2.02-1.24,1.85-.51-.08-1.06-.54-1.38-.9-.38-.43-.74-1.04-.87-1.61,.07-.1,.13-.2,.2-.3,.23-.35,.36-.76,.37-1.15,.54-.2,1.07-.42,1.6-.64l-3.1-2.49c.11,.56,.22,1.11,.34,1.67-1.11-.25-2.43,.46-3,1.37-.23,.37-.49,.72-.76,1.07-.61-.02-1.22-.09-1.81-.22-1.17-.24-2-1.53-2.28-2.6-.22-.88,.12-2.09,1.24-1.85,.26,.06,.53,.11,.79,.14,.11,.01,.21,.02,.32,.03h.14c.42,0,.83-.01,1.25-.06,.9-.11,1.75-.36,2.6-.65Z"/>
    <path d="M35.51,11.99c.5,1.13-.16,2.23-1.14,2.86-.75,.47-2.57,.95-3.07-.16-1.94-4.31-5.87-6.71-10.55-6.71h-.13c-.24,.02-.18,.01-.06,.01-.13,0-.27,.02-.4,.04-.3,.04-.59,.1-.88,.16-.9,.2-1.74,.5-2.64,.91-1.87,.85-3.43,2.19-4.65,3.79-.84-.03-1.68,.04-2.5,.22-.55,.12-1.09,.28-1.62,.46l-.21-1.05s0-.06-.02-.09c3.15-4.71,8.7-8.18,14.28-8.46,.25-.01,.5-.02,.75-.02,5.43,0,10.56,3.01,12.83,8.05h.01Z"/>
    <path d="M32.44,23.03l3.1,2.49c-.53,.22-1.06,.44-1.6,.64,.03-.6-.24-1.16-.94-1.4-.07-.03-.14-.05-.22-.06-.12-.56-.23-1.11-.34-1.67Z"/>
    <path d="M33,24.76c.7,.24,.97,.8,.94,1.4-.27,.11-.54,.21-.81,.3-.12-.59-.24-1.17-.35-1.76,.08,.01,.15,.03,.22,.06Z"/>
    <path d="M33.94,26.16c-.01,.39-.14,.8-.37,1.15-.07,.1-.13,.2-.2,.3-.02-.03-.02-.07-.03-.1l-.21-1.05c.27-.09,.54-.19,.81-.3Z"/>
    <path d="M33.34,27.51s.01,.07,.03,.1c-3.15,4.71-8.58,8.18-14.3,8.46-5.69,.29-11.21-2.76-13.57-8.03h-.01c-.5-1.12,.16-2.22,1.14-2.85,.75-.47,2.57-.95,3.07,.16,1.94,4.31,5.87,6.71,10.55,6.71h.13c.24-.02,.18,0,.06,0,.13-.01,.27-.02,.4-.04,.3-.04,.59-.1,.88-.16,.9-.2,1.74-.5,2.64-.91,1.87-.85,3.43-2.19,4.66-3.8,.84,.03,1.67-.04,2.49-.22,.55-.12,1.09-.28,1.62-.46l.21,1.05Z"/>
    <path d="M32.78,24.7c.11,.59,.23,1.17,.35,1.76-.53,.18-1.07,.34-1.62,.46-.82,.18-1.65,.25-2.49,.22,.27-.35,.53-.7,.76-1.07,.57-.91,1.89-1.62,3-1.37Z"/>
    <path class="cls-1" d="M22.67,1.24V3.95c-.25,0-.5,0-.75,.02-5.58,.28-11.13,3.75-14.28,8.46-.14-.57-.5-1.19-.88-1.62-.32-.36-.87-.82-1.38-.9-1.07-.14-1.38,.72-1.3,1.58l-2.3,.29c-.1-.75-.2-1.49-.33-2.24-.19-1.1-.09-2.26-.09-3.37V1.34l.18-.28c2.2,0,4.42-.11,6.61,.16,1.06,.13,2.19,.02,3.26,.02h11.26Z"/>
    <path d="M20.62,7.98s-.04,0-.06,.01c-.12,0-.18,0,.06-.01Z"/>
    <path d="M20.44,32.05c.12,0,.18-.01-.06,0,.02,0,.04,0,.06,0Z"/>
    <path d="M9.73,18.1c-.54,.19-1.07,.41-1.6,.63-1.45,.6-2.85-1.23-3.1-2.49l-.9-4.48c-.02-.09-.03-.18-.05-.27-.08-.86,.23-1.72,1.3-1.58,.51,.08,1.06,.54,1.38,.9,.38,.43,.74,1.05,.88,1.62-.08,.1-.14,.2-.21,.3-.22,.35-.36,.75-.37,1.14-.54,.2-1.07,.42-1.6,.64l3.1,2.49-.33-1.66c1.11,.24,2.42-.46,2.99-1.37,.24-.37,.49-.73,.77-1.08,.6,.02,1.21,.1,1.8,.22,1.17,.24,2,1.53,2.28,2.6,.22,.88-.12,2.09-1.24,1.85-.26-.06-.53-.11-.79-.14-.11,0-.21-.02-.32-.03h-.04c-.45-.01-.9,.01-1.35,.06-.9,.11-1.75,.36-2.6,.65Z"/>
    <path d="M9.49,13.11c.82-.18,1.66-.25,2.5-.22-.28,.35-.53,.71-.77,1.08-.57,.91-1.88,1.61-2.99,1.37l-.36-1.77c.53-.18,1.07-.34,1.62-.46Z"/>
    <path d="M8.23,15.34l.33,1.66-3.1-2.49c.53-.22,1.06-.44,1.6-.64-.04,.6,.23,1.17,.94,1.41,.07,.03,.15,.05,.23,.06Z"/>
    <path d="M7.87,13.57l.36,1.77c-.08,0-.16-.03-.23-.06-.71-.24-.98-.81-.94-1.41,.27-.11,.54-.21,.81-.3Z"/>
    <path d="M7.66,12.52l.21,1.05c-.27,.09-.54,.19-.81,.3,.01-.39,.15-.79,.37-1.14,.07-.1,.13-.2,.21-.3,.01,.03,.01,.06,.02,.09Z"/>
  </g>
  <g>
    <path class="cls-2" d="M1.54,1.06c2.2,0,4.42-.11,6.61,.16,1.06,.13,2.19,.02,3.26,.02h11.94c.81,0,1.62-.03,2.42,.07,.91,.12,1.83-.04,2.73,.09,1.19,.18,2.51,.02,3.71,.02,.88,0,1.77-.09,2.62-.09,.76,0,1.49-.16,2.24-.18,.76-.03,1.52,0,2.28,0"/>
    <path class="cls-2" d="M1,39.83h.73c2.63,0,5.22,0,7.85-.29,1.76-.2,3.45-.01,5.21-.19,4.24,0,8.15-.33,12.72-.33,.76,.11,1.78,.07,2.54,.22,.7,.14,1.48,.29,2.19,.32,.79,.04,1.56,.37,2.33,.37,.84,0,1.64,.09,2.48,.09,.77,0,1.57-.09,2.31-.09"/>
    <path class="cls-2" d="M1.36,1.34V6.17c0,1.11-.1,2.27,.09,3.37,.13,.75,.23,1.49,.33,2.24,.04,.39,.09,.79,.14,1.18,.23,1.76,0,3.5,0,5.28,0,2.91-.19,5.66-.19,8.57v12.52"/>
    <path class="cls-2" d="M39.55,40.01v-.08c.01-1.91,.46-3.3,.25-5.2-.08-.74,0-1.9,0-2.64,0-1.51-.35-3.11-.25-4.61,.15-2.16-.18-4.42-.18-6.59,0-1.04,.18-1.92,.18-2.97,0-.69,.24-1.62,.25-2.31,.05-2.59-.31-4.94,0-7.51,.07-.55-.03-1.11,.03-1.66,.08-.7,.18-1.35,.18-2.06s-.12-2.49-.17-3.14c-.01-.12-.02-.2-.03-.23h0"/>
  </g>
</svg>